<svg height="512pt" viewBox="0 -49 512 511" width="512pt" xmlns="http://www.w3.org/2000/svg"><path d="m492 .5c-25.089844 0-457.007812 0-472 0-11.046875 0-20 8.953125-20 20v372c0 11.046875 8.953125 20 20 20h472c11.046875 0 20-8.953125 20-20 0-6.792969 0-359.671875 0-372 0-11.046875-8.953125-20-20-20zm-294.667969 40h117.332031v99.011719h-117.332031zm-157.332031 0h117.332031v99.011719h-117.332031zm432 332h-432v-192.988281h432zm0-232.988281h-117.332031v-99.011719h117.332031zm-195.027344 141.117187 74.316406-74.316406c7.808594-7.808594 20.472657-7.808594 28.285157 0 7.808593 7.8125 7.808593 20.472656 0 28.285156l-88.460938 88.457032c-7.808593 7.808593-20.476562 7.804687-28.285156 0l-39.714844-39.714844-62.402343 62.402344c-7.8125 7.808593-20.472657 7.808593-28.285157 0-7.808593-7.8125-7.808593-20.476563 0-28.285157l76.546875-76.546875c7.808594-7.808594 20.480469-7.804687 28.285156 0zm0 0"/></svg>